<mxfile host="drawio.corp.amazon.com" modified="2024-07-08T15:23:16.873Z" agent="Mozilla/5.0 (Macintosh; Intel Mac OS X 10.15; rv:127.0) Gecko/20100101 Firefox/127.0" etag="0f8cWLBXxjpnI8Niz0KW" version="21.7.4" type="device">
  <diagram name="Page-1" id="j9Zy74CcvgL9qF4t7RyD">
    <mxGraphModel dx="1674" dy="804" grid="1" gridSize="10" guides="1" tooltips="1" connect="1" arrows="1" fold="1" page="1" pageScale="1" pageWidth="850" pageHeight="1100" math="0" shadow="0">
      <root>
        <mxCell id="0" />
        <mxCell id="1" parent="0" />
        <mxCell id="o9y6DTKPdFeK1W8Z1qFj-13" style="edgeStyle=orthogonalEdgeStyle;rounded=0;orthogonalLoop=1;jettySize=auto;html=1;entryX=0;entryY=0.5;entryDx=0;entryDy=0;entryPerimeter=0;" edge="1" parent="1" source="o9y6DTKPdFeK1W8Z1qFj-1" target="o9y6DTKPdFeK1W8Z1qFj-2">
          <mxGeometry relative="1" as="geometry">
            <mxPoint x="450" y="365" as="targetPoint" />
          </mxGeometry>
        </mxCell>
        <mxCell id="o9y6DTKPdFeK1W8Z1qFj-1" value="GovIdExtractor&lt;br&gt;upload_files/" style="sketch=0;points=[[0,0,0],[0.25,0,0],[0.5,0,0],[0.75,0,0],[1,0,0],[0,1,0],[0.25,1,0],[0.5,1,0],[0.75,1,0],[1,1,0],[0,0.25,0],[0,0.5,0],[0,0.75,0],[1,0.25,0],[1,0.5,0],[1,0.75,0]];outlineConnect=0;fontColor=#232F3E;fillColor=#7AA116;strokeColor=#ffffff;dashed=0;verticalLabelPosition=bottom;verticalAlign=top;align=center;html=1;fontSize=12;fontStyle=0;aspect=fixed;shape=mxgraph.aws4.resourceIcon;resIcon=mxgraph.aws4.s3;" vertex="1" parent="1">
          <mxGeometry x="290" y="326" width="78" height="78" as="geometry" />
        </mxCell>
        <mxCell id="o9y6DTKPdFeK1W8Z1qFj-12" style="edgeStyle=orthogonalEdgeStyle;rounded=0;orthogonalLoop=1;jettySize=auto;html=1;" edge="1" parent="1" source="o9y6DTKPdFeK1W8Z1qFj-2" target="o9y6DTKPdFeK1W8Z1qFj-4">
          <mxGeometry relative="1" as="geometry" />
        </mxCell>
        <mxCell id="o9y6DTKPdFeK1W8Z1qFj-2" value="state_machine_trigger_lambda" style="outlineConnect=0;dashed=0;verticalLabelPosition=bottom;verticalAlign=top;align=center;html=1;shape=mxgraph.aws3.lambda_function;fillColor=#F58534;gradientColor=none;" vertex="1" parent="1">
          <mxGeometry x="460" y="329" width="69" height="72" as="geometry" />
        </mxCell>
        <mxCell id="o9y6DTKPdFeK1W8Z1qFj-4" value="AWS Step Functions workflow" style="points=[[0,0],[0.25,0],[0.5,0],[0.75,0],[1,0],[1,0.25],[1,0.5],[1,0.75],[1,1],[0.75,1],[0.5,1],[0.25,1],[0,1],[0,0.75],[0,0.5],[0,0.25]];outlineConnect=0;gradientColor=none;html=1;whiteSpace=wrap;fontSize=12;fontStyle=0;container=1;pointerEvents=0;collapsible=0;recursiveResize=0;shape=mxgraph.aws4.group;grIcon=mxgraph.aws4.group_aws_step_functions_workflow;strokeColor=#CD2264;fillColor=none;verticalAlign=top;align=left;spacingLeft=30;fontColor=#CD2264;dashed=0;" vertex="1" parent="1">
          <mxGeometry x="580" y="110" width="340" height="510" as="geometry" />
        </mxCell>
        <mxCell id="o9y6DTKPdFeK1W8Z1qFj-11" style="edgeStyle=orthogonalEdgeStyle;rounded=0;orthogonalLoop=1;jettySize=auto;html=1;" edge="1" parent="o9y6DTKPdFeK1W8Z1qFj-4" source="o9y6DTKPdFeK1W8Z1qFj-5" target="o9y6DTKPdFeK1W8Z1qFj-6">
          <mxGeometry relative="1" as="geometry" />
        </mxCell>
        <mxCell id="o9y6DTKPdFeK1W8Z1qFj-5" value="file_processor_lambda" style="outlineConnect=0;dashed=0;verticalLabelPosition=bottom;verticalAlign=top;align=center;html=1;shape=mxgraph.aws3.lambda_function;fillColor=#F58534;gradientColor=none;" vertex="1" parent="o9y6DTKPdFeK1W8Z1qFj-4">
          <mxGeometry x="170" y="50" width="69" height="72" as="geometry" />
        </mxCell>
        <mxCell id="o9y6DTKPdFeK1W8Z1qFj-15" value="" style="edgeStyle=orthogonalEdgeStyle;rounded=0;orthogonalLoop=1;jettySize=auto;html=1;" edge="1" parent="o9y6DTKPdFeK1W8Z1qFj-4" source="o9y6DTKPdFeK1W8Z1qFj-6" target="o9y6DTKPdFeK1W8Z1qFj-14">
          <mxGeometry relative="1" as="geometry" />
        </mxCell>
        <mxCell id="o9y6DTKPdFeK1W8Z1qFj-17" style="edgeStyle=orthogonalEdgeStyle;rounded=0;orthogonalLoop=1;jettySize=auto;html=1;" edge="1" parent="o9y6DTKPdFeK1W8Z1qFj-4" source="o9y6DTKPdFeK1W8Z1qFj-6" target="o9y6DTKPdFeK1W8Z1qFj-16">
          <mxGeometry relative="1" as="geometry" />
        </mxCell>
        <mxCell id="o9y6DTKPdFeK1W8Z1qFj-6" value="field_extractor_lambda" style="outlineConnect=0;dashed=0;verticalLabelPosition=bottom;verticalAlign=top;align=center;html=1;shape=mxgraph.aws3.lambda_function;fillColor=#F58534;gradientColor=none;" vertex="1" parent="o9y6DTKPdFeK1W8Z1qFj-4">
          <mxGeometry x="170" y="219" width="69" height="72" as="geometry" />
        </mxCell>
        <mxCell id="o9y6DTKPdFeK1W8Z1qFj-14" value="Amazon Bedrock &lt;br&gt;Claude 3 Sonnet" style="sketch=0;points=[[0,0,0],[0.25,0,0],[0.5,0,0],[0.75,0,0],[1,0,0],[0,1,0],[0.25,1,0],[0.5,1,0],[0.75,1,0],[1,1,0],[0,0.25,0],[0,0.5,0],[0,0.75,0],[1,0.25,0],[1,0.5,0],[1,0.75,0]];outlineConnect=0;fontColor=#232F3E;fillColor=#01A88D;strokeColor=#ffffff;dashed=0;verticalLabelPosition=bottom;verticalAlign=top;align=center;html=1;fontSize=12;fontStyle=0;aspect=fixed;shape=mxgraph.aws4.resourceIcon;resIcon=mxgraph.aws4.sagemaker;" vertex="1" parent="o9y6DTKPdFeK1W8Z1qFj-4">
          <mxGeometry x="20" y="216" width="78" height="78" as="geometry" />
        </mxCell>
        <mxCell id="o9y6DTKPdFeK1W8Z1qFj-16" value="&lt;b&gt;Pydantic Classes&lt;/b&gt;&lt;br&gt;PassportFields.py&lt;br&gt;DriversLicenseFields.py" style="shape=ext;double=1;rounded=1;whiteSpace=wrap;html=1;fillColor=#ffe599;" vertex="1" parent="o9y6DTKPdFeK1W8Z1qFj-4">
          <mxGeometry x="130" y="378" width="149" height="90" as="geometry" />
        </mxCell>
        <mxCell id="o9y6DTKPdFeK1W8Z1qFj-7" value="GovIdExtractor&lt;br&gt;stagging_files/" style="sketch=0;points=[[0,0,0],[0.25,0,0],[0.5,0,0],[0.75,0,0],[1,0,0],[0,1,0],[0.25,1,0],[0.5,1,0],[0.75,1,0],[1,1,0],[0,0.25,0],[0,0.5,0],[0,0.75,0],[1,0.25,0],[1,0.5,0],[1,0.75,0]];outlineConnect=0;fontColor=#232F3E;fillColor=#7AA116;strokeColor=#ffffff;dashed=0;verticalLabelPosition=bottom;verticalAlign=top;align=center;html=1;fontSize=12;fontStyle=0;aspect=fixed;shape=mxgraph.aws4.resourceIcon;resIcon=mxgraph.aws4.s3;" vertex="1" parent="1">
          <mxGeometry x="970" y="157" width="78" height="78" as="geometry" />
        </mxCell>
        <mxCell id="o9y6DTKPdFeK1W8Z1qFj-8" style="edgeStyle=orthogonalEdgeStyle;rounded=0;orthogonalLoop=1;jettySize=auto;html=1;" edge="1" parent="1" source="o9y6DTKPdFeK1W8Z1qFj-5" target="o9y6DTKPdFeK1W8Z1qFj-7">
          <mxGeometry relative="1" as="geometry" />
        </mxCell>
        <mxCell id="o9y6DTKPdFeK1W8Z1qFj-9" value="GovIdExtractor&lt;br&gt;processed_files/" style="sketch=0;points=[[0,0,0],[0.25,0,0],[0.5,0,0],[0.75,0,0],[1,0,0],[0,1,0],[0.25,1,0],[0.5,1,0],[0.75,1,0],[1,1,0],[0,0.25,0],[0,0.5,0],[0,0.75,0],[1,0.25,0],[1,0.5,0],[1,0.75,0]];outlineConnect=0;fontColor=#232F3E;fillColor=#7AA116;strokeColor=#ffffff;dashed=0;verticalLabelPosition=bottom;verticalAlign=top;align=center;html=1;fontSize=12;fontStyle=0;aspect=fixed;shape=mxgraph.aws4.resourceIcon;resIcon=mxgraph.aws4.s3;" vertex="1" parent="1">
          <mxGeometry x="970" y="326" width="78" height="78" as="geometry" />
        </mxCell>
        <mxCell id="o9y6DTKPdFeK1W8Z1qFj-10" style="edgeStyle=orthogonalEdgeStyle;rounded=0;orthogonalLoop=1;jettySize=auto;html=1;entryX=0;entryY=0.5;entryDx=0;entryDy=0;entryPerimeter=0;" edge="1" parent="1" source="o9y6DTKPdFeK1W8Z1qFj-6" target="o9y6DTKPdFeK1W8Z1qFj-9">
          <mxGeometry relative="1" as="geometry" />
        </mxCell>
        <mxCell id="o9y6DTKPdFeK1W8Z1qFj-18" value="us-east-1" style="points=[[0,0],[0.25,0],[0.5,0],[0.75,0],[1,0],[1,0.25],[1,0.5],[1,0.75],[1,1],[0.75,1],[0.5,1],[0.25,1],[0,1],[0,0.75],[0,0.5],[0,0.25]];outlineConnect=0;gradientColor=none;html=1;whiteSpace=wrap;fontSize=12;fontStyle=0;container=1;pointerEvents=0;collapsible=0;recursiveResize=0;shape=mxgraph.aws4.group;grIcon=mxgraph.aws4.group_region;strokeColor=#147EBA;fillColor=none;verticalAlign=top;align=left;spacingLeft=30;fontColor=#147EBA;dashed=1;" vertex="1" parent="1">
          <mxGeometry x="260" y="80" width="860" height="570" as="geometry" />
        </mxCell>
      </root>
    </mxGraphModel>
  </diagram>
</mxfile>
